<?xml version="1.0" standalone="no"?>
<!DOCTYPE svg PUBLIC "-//W3C//DTD SVG 20010904//EN"
 "http://www.w3.org/TR/2001/REC-SVG-20010904/DTD/svg10.dtd">
<svg version="1.0" xmlns="http://www.w3.org/2000/svg"
 width="500.000000pt" height="500.000000pt" viewBox="0 0 500.000000 500.000000"
 preserveAspectRatio="xMidYMid meet">

<g transform="translate(0.000000,500.000000) scale(0.100000,-0.100000)"
fill="#000000" stroke="none">
<path d="M1895 3436 c-16 -8 -38 -25 -48 -38 -10 -12 -54 -72 -98 -133 l-81
-109 7 86 c4 47 4 105 0 129 l-7 43 -19 -23 c-43 -52 -49 -160 -15 -232 17
-37 17 -37 -12 -95 -16 -33 -35 -78 -42 -101 -17 -57 -30 -45 -30 30 0 34 -5
69 -10 77 -18 27 -50 -24 -50 -79 0 -46 31 -131 48 -131 5 0 7 -40 5 -92 -3
-51 -1 -118 5 -148 l10 -55 -21 30 c-35 50 -94 105 -111 105 -21 0 -20 -6 12
-65 20 -37 41 -58 81 -82 48 -29 58 -40 77 -91 12 -32 34 -82 49 -111 l27 -54
-39 23 c-21 13 -42 27 -47 32 -12 10 -66 11 -66 1 0 -15 36 -62 64 -84 19 -15
44 -23 77 -24 47 -2 50 -4 92 -61 24 -32 58 -72 76 -88 34 -32 41 -52 14 -38
-28 15 -133 25 -133 13 0 -34 124 -77 178 -62 22 7 34 6 41 -3 14 -17 151 -80
158 -73 3 4 -6 9 -20 12 -18 5 -27 15 -31 38 -7 36 -71 137 -86 137 -17 0 -11
-35 15 -84 13 -25 20 -46 15 -46 -5 0 -37 22 -72 48 -55 43 -64 54 -71 93 -16
89 -30 128 -54 151 l-26 23 8 -50 c4 -27 11 -58 17 -68 5 -10 7 -21 5 -24 -7
-6 -94 118 -126 179 -24 44 -24 46 -8 81 18 37 23 154 8 192 -7 18 -9 17 -27
-10 -13 -20 -19 -47 -19 -91 0 -35 -3 -60 -7 -56 -8 9 -44 135 -53 185 -6 35
-3 41 33 76 38 37 72 112 72 155 -1 18 -6 15 -35 -17 -18 -21 -43 -57 -55 -80
l-21 -42 6 65 c3 36 15 95 26 132 21 65 22 66 67 79 32 9 63 29 101 66 30 29
52 56 48 59 -8 8 -60 -12 -110 -44 -22 -13 -40 -22 -42 -20 -5 5 51 95 98 156
24 31 60 63 86 77 59 32 85 54 105 93 28 54 18 64 -39 38z"/>
<path d="M3053 3435 c4 -9 7 -21 7 -25 0 -20 64 -81 107 -102 25 -12 62 -43
82 -68 42 -51 113 -162 107 -168 -2 -2 -21 7 -43 20 -48 30 -102 52 -109 45
-3 -3 12 -25 34 -49 41 -44 86 -72 134 -82 23 -5 30 -16 48 -74 12 -37 24 -96
27 -132 l5 -65 -26 51 c-14 27 -39 63 -56 79 l-30 29 0 -25 c0 -37 54 -143 86
-168 l28 -22 -13 -61 c-14 -67 -39 -149 -50 -160 -3 -4 -4 13 -2 38 3 45 -22
134 -39 134 -24 0 -26 -138 -3 -201 l16 -47 -46 -78 c-25 -44 -60 -95 -76
-114 l-30 -35 14 40 c8 22 14 56 14 75 l0 35 -24 -28 c-26 -30 -45 -85 -45
-134 0 -39 -33 -80 -98 -122 -27 -17 -51 -31 -54 -31 -3 0 5 21 18 47 24 46
31 83 16 83 -16 0 -73 -87 -83 -127 -9 -32 -17 -43 -37 -48 -15 -4 -22 -9 -15
-12 13 -5 130 50 151 71 10 10 24 11 50 5 20 -4 54 -4 74 0 47 11 102 43 97
56 -5 12 -89 8 -124 -5 -35 -13 -31 -1 16 45 22 22 56 61 76 88 30 40 40 47
70 47 19 0 51 7 70 16 34 17 83 71 83 92 0 26 -78 3 -122 -36 -27 -23 -22 0
16 76 18 37 39 83 45 104 8 25 19 38 37 42 36 9 98 69 119 116 10 22 16 43 12
46 -11 12 -63 -26 -96 -70 -19 -25 -35 -46 -35 -46 -6 0 6 276 13 284 40 50
55 161 27 199 -29 38 -46 4 -46 -96 0 -56 -9 -54 -32 8 -9 22 -27 65 -42 96
l-25 56 19 41 c26 54 26 130 -1 193 -12 27 -25 46 -30 44 -15 -10 -20 -89 -11
-165 5 -41 9 -76 7 -78 -3 -3 -125 156 -156 203 -34 53 -57 71 -98 80 -29 6
-33 5 -28 -10z"/>
<path d="M2210 3080 c0 -16 7 -20 35 -20 l35 0 0 -294 c0 -165 -4 -306 -10
-320 -5 -14 -20 -28 -35 -32 -14 -3 -25 -12 -25 -20 0 -11 23 -14 110 -14 103
0 110 1 110 20 0 16 -7 20 -35 20 l-35 0 0 156 0 155 37 -3 c40 -3 28 10 235
-259 27 -37 61 -72 75 -78 36 -17 133 -14 133 3 0 8 -13 17 -28 21 -36 7 -88
62 -188 195 -43 58 -91 117 -106 132 l-28 26 61 99 c90 145 130 182 212 197
23 4 37 13 37 21 0 12 -20 15 -110 15 -103 0 -110 -1 -110 -20 0 -16 7 -20 30
-20 l30 0 -43 -58 c-23 -32 -67 -97 -97 -145 l-55 -87 -42 0 -43 0 0 119 c0
135 8 168 45 177 14 3 25 12 25 20 0 11 -23 14 -110 14 -103 0 -110 -1 -110
-20z"/>
<path d="M2878 1923 c7 -3 16 -2 19 1 4 3 -2 6 -13 5 -11 0 -14 -3 -6 -6z"/>
<path d="M1680 1641 l0 -161 45 0 c39 0 45 3 51 25 3 14 4 41 2 60 l-4 35 43
0 43 0 0 -60 0 -60 45 0 45 0 0 88 c0 84 -1 89 -25 102 -30 16 -30 20 -5 70
28 55 26 60 -24 60 l-43 0 -27 -61 c-15 -33 -33 -58 -38 -57 -6 2 -12 29 -12
59 l-1 54 -47 3 -48 3 0 -160z"/>
<path d="M2052 1643 l3 -158 115 0 115 0 3 38 3 37 -70 0 c-69 0 -71 1 -71 25
0 23 3 25 50 25 l50 0 0 35 0 35 -50 0 c-43 0 -50 3 -50 20 0 18 7 20 54 20
75 0 86 6 86 46 l0 34 -120 0 -121 0 3 -157z"/>
<path d="M2380 1714 c0 -73 5 -96 31 -160 l31 -74 68 0 c42 0 71 5 77 13 6 6
22 42 36 80 21 53 27 84 27 147 l0 80 -50 0 -50 0 0 -80 c0 -77 -18 -150 -38
-150 -15 0 -42 106 -42 168 l0 62 -45 0 -45 0 0 -86z"/>
<path d="M2750 1640 l0 -160 44 0 45 0 3 53 3 52 48 3 48 3 -3 37 c-3 37 -4
37 -50 40 -43 3 -48 5 -48 28 0 23 3 24 64 24 55 0 64 3 69 20 3 11 3 29 0 40
-5 18 -14 20 -114 20 l-109 0 0 -160z"/>
<path d="M3062 1643 l3 -158 111 0 c140 0 154 8 154 96 0 53 -2 60 -26 72 -17
9 -23 17 -15 21 6 4 11 26 11 50 0 67 -17 76 -139 76 l-102 0 3 -157z m158 62
c0 -21 -5 -25 -30 -25 -25 0 -30 4 -30 25 0 21 5 25 30 25 25 0 30 -4 30 -25z
m18 -122 c-3 -24 -8 -28 -40 -31 -36 -3 -38 -2 -38 27 0 30 2 31 41 31 38 0
40 -1 37 -27z"/>
</g>
</svg>
