<svg version="1.1" id="Layer_1" xmlns="http://www.w3.org/2000/svg" xmlns:xlink="http://www.w3.org/1999/xlink" x="0px" y="0px"
	 width="100%" viewBox="0 0 242 197" enable-background="new 0 0 242 197" xml:space="preserve">
<path fill="#F5F6FB" opacity="1.000000" stroke="none" 
	d="
M147.000000,198.000000 
	C98.000000,198.000000 49.500008,198.000000 1.000006,198.000000 
	C1.000004,132.333344 1.000004,66.666679 1.000002,1.000015 
	C81.666656,1.000010 162.333313,1.000010 242.999969,1.000005 
	C242.999985,66.666649 242.999985,132.333298 243.000000,197.999969 
	C211.166672,198.000000 179.333328,198.000000 147.000000,198.000000 
M176.762314,165.735748 
	C176.631531,165.618576 176.500732,165.501389 176.612717,164.716965 
	C177.787872,161.454895 178.963028,158.192825 180.138184,154.930756 
	C179.613144,154.710007 179.088120,154.489258 178.563080,154.268509 
	C172.825409,158.626648 169.670151,164.582321 168.358200,172.112137 
	C173.589752,171.871216 177.328644,168.996185 181.829254,165.938156 
	C191.988052,168.130798 199.380768,166.033813 203.435852,159.037735 
	C199.540405,159.208786 196.187866,159.412582 192.832718,159.473953 
	C191.585190,159.496780 190.331558,159.186066 189.684799,158.752472 
	C193.235229,154.584534 196.942566,150.536911 200.269379,146.197525 
	C201.915009,144.051010 203.403168,143.019882 206.309753,143.062057 
	C214.127213,143.175476 220.409500,137.812805 221.329376,130.185013 
	C219.291687,130.513565 217.375626,130.588501 215.623459,131.163132 
	C213.333893,131.914017 211.173981,133.060272 208.605820,133.338196 
	C210.698105,128.628525 213.079529,124.020187 214.778351,119.172638 
	C215.862839,116.078171 217.436386,114.306808 220.500595,113.040070 
	C227.418137,110.180359 232.053894,103.118347 231.619186,96.856171 
	C225.203827,97.369949 222.915375,103.482910 219.212967,106.921333 
	C219.212967,99.629044 219.069595,92.747543 219.298813,85.878464 
	C219.369171,83.770088 220.079086,81.471214 221.154892,79.648354 
	C224.254227,74.396851 225.895447,68.950577 223.988785,62.996212 
	C223.429565,61.249821 221.823685,59.838589 220.697525,58.273746 
	C220.124542,58.456802 219.551575,58.639862 218.978607,58.822922 
	C218.380478,63.368324 217.782333,67.913727 217.034119,73.599731 
	C215.002563,68.746201 213.773666,64.921410 211.864075,61.473629 
	C209.492310,57.191437 208.211899,53.338425 211.133377,48.640057 
	C212.436539,46.544270 212.718643,43.500870 212.629333,40.916397 
	C212.437561,35.367397 211.359451,29.981775 207.295929,25.935614 
	C206.787735,26.034554 206.279556,26.133493 205.771362,26.232433 
	C205.771362,33.888245 205.771362,41.544052 205.771362,50.257835 
	C200.526596,42.945339 195.628387,36.499851 191.159637,29.769218 
	C187.289108,23.939581 183.500534,21.593470 177.749664,22.580170 
	C178.867157,27.912849 181.356140,32.689156 186.368652,34.711662 
	C196.130112,38.650326 200.781845,47.074421 205.985657,55.142464 
	C206.503479,55.945316 206.640442,56.993839 207.009888,58.094288 
	C202.278046,56.014671 198.009216,54.138546 193.740372,52.262421 
	C193.494354,52.729691 193.248337,53.196960 193.002304,53.664230 
	C196.736618,59.638893 201.533432,64.379845 208.601410,66.497856 
	C209.850876,66.872284 211.836166,66.952400 212.206909,67.756302 
	C215.186615,74.217445 217.530289,80.880707 216.917297,88.573586 
	C213.533218,84.421272 210.644211,80.876404 207.755203,77.331543 
	C207.284348,77.672325 206.813492,78.013107 206.342621,78.353897 
	C207.005142,84.325638 208.473572,90.565292 213.084824,94.337059 
	C218.478516,98.748810 217.493210,103.304367 216.048920,108.487839 
	C215.333084,111.056999 214.438889,113.576462 213.371994,116.910179 
	C211.634186,111.407539 210.345398,107.326668 209.056595,103.245796 
	C208.485199,103.366646 207.913803,103.487488 207.342422,103.608337 
	C205.064285,110.225479 204.183685,117.136993 207.127228,123.681877 
	C208.703049,127.185638 208.520569,129.835754 206.418716,133.307724 
	C203.677002,137.557297 200.935287,141.806870 198.193573,146.056442 
	C197.799850,145.800522 197.406143,145.544601 197.012421,145.288681 
	C197.012421,142.460709 197.012421,139.632736 197.012421,135.716309 
	C191.074982,140.962265 190.227692,147.158020 189.123871,153.271774 
	C188.784546,155.151245 188.107788,156.969818 187.003571,159.072449 
	C185.014908,160.755264 183.026260,162.438080 180.420792,164.274719 
	C179.317963,164.892975 178.215118,165.511230 176.762314,165.735748 
M68.478348,168.437622 
	C72.661064,170.517654 76.843781,172.597672 81.106033,174.717255 
	C79.170883,171.270096 77.792320,168.620895 76.233665,166.082245 
	C73.755112,162.045349 71.156448,158.082184 68.608589,154.087845 
	C67.868866,154.457611 67.129143,154.827393 66.389420,155.197159 
	C67.285118,158.007065 68.289444,160.790054 68.997200,163.646530 
	C69.166061,164.328049 68.345024,165.254822 67.552803,165.555161 
	C64.365479,163.395477 61.178158,161.235794 57.807644,158.261627 
	C56.653877,152.988998 55.744839,147.644684 54.231033,142.477539 
	C53.587093,140.279510 51.677242,138.452377 50.342693,136.456680 
	C49.918121,136.690491 49.493553,136.924286 49.068985,137.158096 
	C49.068985,139.737457 49.275440,142.336670 49.029560,144.892349 
	C48.342686,152.031723 52.639091,155.848831 57.813347,159.785110 
	C52.975079,159.529251 48.136810,159.273392 43.298542,159.017517 
	C43.248775,159.558594 43.199009,160.099686 43.149239,160.640762 
	C47.944298,165.504944 53.872993,167.171387 60.674316,166.892395 
	C63.104073,166.792709 65.569229,167.555954 68.478348,168.437622 
M27.090042,102.727188 
	C27.011234,103.675850 26.932426,104.624512 26.867470,105.406433 
	C23.002687,102.089088 19.167654,98.797272 15.332622,95.505455 
	C14.860422,95.983604 14.388223,96.461754 13.916024,96.939903 
	C14.874900,103.998695 18.710831,109.437645 25.089705,112.534241 
	C28.740250,114.306381 30.497458,116.635422 31.963820,120.203232 
	C33.673012,124.361877 36.408138,128.098633 38.690163,132.023071 
	C38.764973,132.151733 38.753372,132.330643 38.782043,132.486115 
	C38.843914,132.427124 38.905785,132.368118 38.967655,132.309128 
	C38.571220,132.253494 38.174786,132.197861 37.778351,132.142227 
	C38.090183,129.788361 37.970116,127.269997 38.792526,125.110580 
	C41.575893,117.802284 41.295975,110.673065 37.452412,103.151711 
	C35.883381,107.315292 34.314350,111.478874 32.258709,116.933731 
	C30.845669,111.002510 29.772995,106.499969 28.785793,101.220016 
	C29.685572,99.606941 30.314472,97.743614 31.532833,96.424873 
	C36.359333,91.200752 39.220032,85.248505 39.735950,78.281815 
	C39.281494,77.977959 38.827038,77.674110 38.372585,77.370255 
	C35.217045,81.306900 32.061508,85.243546 28.382620,89.833092 
	C28.221033,87.921432 28.140720,86.971298 28.672962,85.586838 
	C29.851393,80.916405 31.040888,76.248734 32.204254,71.574554 
	C32.946007,68.594337 34.611938,67.072708 37.807945,66.254868 
	C44.868267,64.448158 49.623550,59.590351 53.220791,53.623772 
	C52.935829,53.155922 52.650871,52.688072 52.365913,52.220222 
	C48.396576,54.049694 44.427238,55.879166 40.033554,57.101612 
	C39.866791,56.919563 39.700031,56.737518 39.779999,55.915558 
	C45.071415,47.254837 50.344318,38.912342 60.276791,34.229759 
	C64.227219,32.367363 66.571640,27.098413 69.647209,23.380325 
	C62.182590,21.379242 58.418861,24.891241 55.147213,29.654463 
	C50.809372,35.969963 46.242710,42.128300 41.774380,48.354172 
	C40.691944,40.505363 42.326675,33.130116 39.741505,25.570808 
	C33.134956,32.172146 31.856277,42.997871 36.054722,51.567909 
	C36.653175,52.789494 37.439037,54.516644 37.013340,55.543503 
	C34.639675,61.269215 31.919567,66.851303 29.165289,72.812836 
	C28.396116,67.698990 27.690182,63.005577 26.870455,57.555622 
	C20.153667,63.264614 20.016699,72.658089 25.054331,79.812180 
	C26.256346,81.519196 26.473833,83.919464 26.964745,86.812088 
	C27.033964,91.873566 27.103182,96.935051 27.090042,102.727188 
M122.166405,102.358818 
	C126.756851,108.487679 131.764862,114.353378 135.834244,120.810616 
	C141.170837,129.278671 148.594589,130.317581 157.967743,128.362076 
	C157.299759,127.244667 156.888031,125.717354 156.248947,125.615425 
	C149.143677,124.482178 145.937881,118.715309 142.058441,113.834816 
	C135.761871,105.913528 129.637360,97.855469 122.926285,89.191650 
	C127.110931,82.842133 131.606400,75.676926 136.466721,68.768417 
	C139.652679,64.239876 144.227875,61.659721 149.831238,60.831505 
	C151.121368,60.640812 152.235580,59.259995 153.430756,58.426868 
	C153.166260,57.947548 152.901749,57.468231 152.637253,56.988911 
	C146.328094,56.988911 140.013443,56.856087 133.714996,57.115715 
	C132.626862,57.160572 131.607330,58.869957 129.783493,60.501747 
	C132.955994,61.045002 134.411438,61.294231 135.550385,61.489258 
	C130.282608,69.565926 124.903214,77.184547 120.237579,85.217705 
	C117.690666,89.602905 114.729485,90.913979 109.853668,89.396301 
	C109.853668,81.498596 109.609459,73.545677 110.051010,65.631035 
	C110.144058,63.963272 112.736359,62.420815 114.207779,60.849384 
	C115.091049,59.906071 116.033829,59.018467 117.741463,57.317165 
	C108.649750,57.317165 101.076828,57.317165 93.495636,57.317165 
	C92.238144,64.687775 98.712753,59.453716 100.281853,61.935024 
	C100.281853,80.577744 100.278595,99.212479 100.284683,117.847214 
	C100.285851,121.439911 99.587563,124.426361 95.346809,125.376854 
	C94.413071,125.586128 93.777367,127.125183 92.201965,129.013962 
	C100.442535,129.013962 107.252289,129.159515 114.042641,128.862137 
	C115.100754,128.815796 116.070396,126.749420 117.080948,125.617149 
	C116.688835,125.226158 116.296722,124.835159 115.904610,124.444168 
	C113.821754,124.444168 111.738892,124.444168 109.576141,124.444168 
	C109.576141,119.161896 109.576149,114.189156 109.576149,109.216415 
	C109.576149,104.275108 109.576141,99.333801 109.576141,94.448921 
	C116.726883,92.669823 118.441689,98.475197 122.166405,102.358818 
M28.117918,130.332504 
	C24.882792,129.840530 24.196804,131.150818 25.442640,133.993088 
	C28.455524,140.866730 36.286430,144.365601 44.803230,141.937119 
	C43.342113,139.595291 42.486401,136.648682 40.551979,135.465088 
	C36.988705,133.284882 32.791553,132.140686 28.117918,130.332504 
z"/>
<path fill="#916A47" opacity="1.000000" stroke="none" 
	d="
M121.960495,102.067368 
	C118.441689,98.475197 116.726883,92.669823 109.576141,94.448921 
	C109.576141,99.333801 109.576149,104.275108 109.576149,109.216415 
	C109.576149,114.189156 109.576141,119.161896 109.576141,124.444168 
	C111.738892,124.444168 113.821754,124.444168 115.904610,124.444168 
	C116.296722,124.835159 116.688835,125.226158 117.080948,125.617149 
	C116.070396,126.749420 115.100754,128.815796 114.042641,128.862137 
	C107.252289,129.159515 100.442535,129.013962 92.201965,129.013962 
	C93.777367,127.125183 94.413071,125.586128 95.346809,125.376854 
	C99.587563,124.426361 100.285851,121.439911 100.284683,117.847214 
	C100.278595,99.212479 100.281853,80.577744 100.281853,61.935024 
	C98.712753,59.453716 92.238144,64.687775 93.495636,57.317165 
	C101.076828,57.317165 108.649750,57.317165 117.741463,57.317165 
	C116.033829,59.018467 115.091049,59.906071 114.207779,60.849384 
	C112.736359,62.420815 110.144058,63.963272 110.051010,65.631035 
	C109.609459,73.545677 109.853668,81.498596 109.853668,89.396301 
	C114.729485,90.913979 117.690666,89.602905 120.237579,85.217705 
	C124.903214,77.184547 130.282608,69.565926 135.550385,61.489258 
	C134.411438,61.294231 132.955994,61.045002 129.783493,60.501747 
	C131.607330,58.869957 132.626862,57.160572 133.714996,57.115715 
	C140.013443,56.856087 146.328094,56.988911 152.637253,56.988911 
	C152.901749,57.468231 153.166260,57.947548 153.430756,58.426868 
	C152.235580,59.259995 151.121368,60.640812 149.831238,60.831505 
	C144.227875,61.659721 139.652679,64.239876 136.466721,68.768417 
	C131.606400,75.676926 127.110931,82.842133 122.926285,89.191650 
	C129.637360,97.855469 135.761871,105.913528 142.058441,113.834816 
	C145.937881,118.715309 149.143677,124.482178 156.248947,125.615425 
	C156.888031,125.717354 157.299759,127.244667 157.967743,128.362076 
	C148.594589,130.317581 141.170837,129.278671 135.834244,120.810616 
	C131.764862,114.353378 126.756851,108.487679 121.960495,102.067368 
z"/>
<path fill="#936C4A" opacity="1.000000" stroke="none" 
	d="
M206.942856,132.871246 
	C208.520569,129.835754 208.703049,127.185638 207.127228,123.681877 
	C204.183685,117.136993 205.064285,110.225479 207.342422,103.608337 
	C207.913803,103.487488 208.485199,103.366646 209.056595,103.245796 
	C210.345398,107.326668 211.634186,111.407539 213.371994,116.910179 
	C214.438889,113.576462 215.333084,111.056999 216.048920,108.487839 
	C217.493210,103.304367 218.478516,98.748810 213.084824,94.337059 
	C208.473572,90.565292 207.005142,84.325638 206.342621,78.353897 
	C206.813492,78.013107 207.284348,77.672325 207.755203,77.331543 
	C210.644211,80.876404 213.533218,84.421272 216.917297,88.573586 
	C217.530289,80.880707 215.186615,74.217445 212.206909,67.756302 
	C211.836166,66.952400 209.850876,66.872284 208.601410,66.497856 
	C201.533432,64.379845 196.736618,59.638893 193.002304,53.664230 
	C193.248337,53.196960 193.494354,52.729691 193.740372,52.262421 
	C198.009216,54.138546 202.278046,56.014671 207.009888,58.094288 
	C206.640442,56.993839 206.503479,55.945316 205.985657,55.142464 
	C200.781845,47.074421 196.130112,38.650326 186.368652,34.711662 
	C181.356140,32.689156 178.867157,27.912849 177.749664,22.580170 
	C183.500534,21.593470 187.289108,23.939581 191.159637,29.769218 
	C195.628387,36.499851 200.526596,42.945339 205.771362,50.257835 
	C205.771362,41.544052 205.771362,33.888245 205.771362,26.232433 
	C206.279556,26.133493 206.787735,26.034554 207.295929,25.935614 
	C211.359451,29.981775 212.437561,35.367397 212.629333,40.916397 
	C212.718643,43.500870 212.436539,46.544270 211.133377,48.640057 
	C208.211899,53.338425 209.492310,57.191437 211.864075,61.473629 
	C213.773666,64.921410 215.002563,68.746201 217.034119,73.599731 
	C217.782333,67.913727 218.380478,63.368324 218.978607,58.822922 
	C219.551575,58.639862 220.124542,58.456802 220.697525,58.273746 
	C221.823685,59.838589 223.429565,61.249821 223.988785,62.996212 
	C225.895447,68.950577 224.254227,74.396851 221.154892,79.648354 
	C220.079086,81.471214 219.369171,83.770088 219.298813,85.878464 
	C219.069595,92.747543 219.212967,99.629044 219.212967,106.921333 
	C222.915375,103.482910 225.203827,97.369949 231.619186,96.856171 
	C232.053894,103.118347 227.418137,110.180359 220.500595,113.040070 
	C217.436386,114.306808 215.862839,116.078171 214.778351,119.172638 
	C213.079529,124.020187 210.698105,128.628525 208.802704,133.674469 
	C208.999588,134.010757 209.033295,133.975586 208.727493,133.788589 
	C208.214569,133.720779 208.007446,133.839951 207.606735,133.822372 
	C207.185699,133.454987 207.028931,133.183533 206.942856,132.871246 
z"/>
<path fill="#926B49" opacity="1.000000" stroke="none" 
	d="
M27.144150,86.000877 
	C26.473833,83.919464 26.256346,81.519196 25.054331,79.812180 
	C20.016699,72.658089 20.153667,63.264614 26.870455,57.555622 
	C27.690182,63.005577 28.396116,67.698990 29.165289,72.812836 
	C31.919567,66.851303 34.639675,61.269215 37.013340,55.543503 
	C37.439037,54.516644 36.653175,52.789494 36.054722,51.567909 
	C31.856277,42.997871 33.134956,32.172146 39.741505,25.570808 
	C42.326675,33.130116 40.691944,40.505363 41.774380,48.354172 
	C46.242710,42.128300 50.809372,35.969963 55.147213,29.654463 
	C58.418861,24.891241 62.182590,21.379242 69.647209,23.380325 
	C66.571640,27.098413 64.227219,32.367363 60.276791,34.229759 
	C50.344318,38.912342 45.071415,47.254837 39.483620,56.438850 
	C39.610798,57.210972 40.034348,57.459805 40.457901,57.708637 
	C44.427238,55.879166 48.396576,54.049694 52.365913,52.220222 
	C52.650871,52.688072 52.935829,53.155922 53.220791,53.623772 
	C49.623550,59.590351 44.868267,64.448158 37.807945,66.254868 
	C34.611938,67.072708 32.946007,68.594337 32.204254,71.574554 
	C31.040888,76.248734 29.851393,80.916405 28.137638,85.798050 
	C27.602314,86.009262 27.144150,86.000877 27.144150,86.000877 
z"/>
<path fill="#946D4C" opacity="1.000000" stroke="none" 
	d="
M28.700319,101.997421 
	C29.772995,106.499969 30.845669,111.002510 32.258709,116.933731 
	C34.314350,111.478874 35.883381,107.315292 37.452412,103.151711 
	C41.295975,110.673065 41.575893,117.802284 38.792526,125.110580 
	C37.970116,127.269997 38.090183,129.788361 37.778351,132.142227 
	C38.174786,132.197861 38.571220,132.253494 38.967655,132.309128 
	C38.905785,132.368118 38.843914,132.427124 38.782051,132.486115 
	C38.753372,132.330643 38.764973,132.151733 38.690163,132.023071 
	C36.408138,128.098633 33.673012,124.361877 31.963820,120.203232 
	C30.497458,116.635422 28.740250,114.306381 25.089705,112.534241 
	C18.710831,109.437645 14.874900,103.998695 13.916024,96.939903 
	C14.388223,96.461754 14.860422,95.983604 15.332622,95.505455 
	C19.167654,98.797272 23.002687,102.089088 26.867470,105.406433 
	C26.932426,104.624512 27.011234,103.675850 27.385880,102.361443 
	C28.021252,101.996269 28.360786,101.996849 28.700319,101.997421 
z"/>
<path fill="#936C4B" opacity="1.000000" stroke="none" 
	d="
M206.680786,133.089478 
	C207.028931,133.183533 207.185699,133.454987 207.703949,134.131927 
	C208.340927,134.377365 208.687119,134.176483 209.033295,133.975586 
	C209.033295,133.975586 208.999588,134.010757 208.978943,134.023590 
	C211.173981,133.060272 213.333893,131.914017 215.623459,131.163132 
	C217.375626,130.588501 219.291687,130.513565 221.329376,130.185013 
	C220.409500,137.812805 214.127213,143.175476 206.309753,143.062057 
	C203.403168,143.019882 201.915009,144.051010 200.269379,146.197525 
	C196.942566,150.536911 193.235229,154.584534 189.007889,158.844772 
	C188.082504,158.896820 187.834030,158.856552 187.585541,158.816269 
	C188.107788,156.969818 188.784546,155.151245 189.123871,153.271774 
	C190.227692,147.158020 191.074982,140.962265 197.012421,135.716309 
	C197.012421,139.632736 197.012421,142.460709 197.012421,145.288681 
	C197.406143,145.544601 197.799850,145.800522 198.193573,146.056442 
	C200.935287,141.806870 203.677002,137.557297 206.680786,133.089478 
M196.495346,147.788910 
	C196.572205,147.603027 196.649078,147.417130 196.725937,147.231247 
	C196.538086,147.279709 196.350235,147.328171 196.495346,147.788910 
z"/>
<path fill="#916A47" opacity="1.000000" stroke="none" 
	d="
M28.488235,130.448639 
	C32.791553,132.140686 36.988705,133.284882 40.551979,135.465088 
	C42.486401,136.648682 43.342113,139.595291 44.803230,141.937119 
	C36.286430,144.365601 28.455524,140.866730 25.442640,133.993088 
	C24.196804,131.150818 24.882792,129.840530 28.488235,130.448639 
z"/>
<path fill="#916A48" opacity="1.000000" stroke="none" 
	d="
M28.743057,101.608719 
	C28.360786,101.996849 28.021252,101.996269 27.427059,101.996109 
	C27.103182,96.935051 27.033964,91.873566 27.054447,86.406479 
	C27.144150,86.000877 27.602314,86.009262 27.831360,86.015213 
	C28.140720,86.971298 28.221033,87.921432 28.382620,89.833092 
	C32.061508,85.243546 35.217045,81.306900 38.372585,77.370255 
	C38.827038,77.674110 39.281494,77.977959 39.735950,78.281815 
	C39.220032,85.248505 36.359333,91.200752 31.532833,96.424873 
	C30.314472,97.743614 29.685572,99.606941 28.743057,101.608719 
z"/>
<path fill="#946E4D" opacity="1.000000" stroke="none" 
	d="
M57.990837,159.076111 
	C61.178158,161.235794 64.365479,163.395477 67.773720,166.121368 
	C68.002502,167.100174 68.010361,167.512756 68.018227,167.925323 
	C65.569229,167.555954 63.104073,166.792709 60.674316,166.892395 
	C53.872993,167.171387 47.944298,165.504944 43.149239,160.640762 
	C43.199009,160.099686 43.248775,159.558594 43.298542,159.017517 
	C48.136810,159.273392 52.975079,159.529251 57.922493,159.408356 
	C58.031635,159.031601 57.990837,159.076111 57.990837,159.076111 
z"/>
<path fill="#926B49" opacity="1.000000" stroke="none" 
	d="
M187.294556,158.944366 
	C187.834030,158.856552 188.082504,158.896820 188.705841,158.982269 
	C190.331558,159.186066 191.585190,159.496780 192.832718,159.473953 
	C196.187866,159.412582 199.540405,159.208786 203.435852,159.037735 
	C199.380768,166.033813 191.988052,168.130798 181.414581,165.638229 
	C181.012466,164.932495 181.025040,164.526703 181.037613,164.120895 
	C183.026260,162.438080 185.014908,160.755264 187.294556,158.944366 
z"/>
<path fill="#926B49" opacity="1.000000" stroke="none" 
	d="
M58.054050,159.011383 
	C52.639091,155.848831 48.342686,152.031723 49.029560,144.892349 
	C49.275440,142.336670 49.068985,139.737457 49.068985,137.158096 
	C49.493553,136.924286 49.918121,136.690491 50.342693,136.456680 
	C51.677242,138.452377 53.587093,140.279510 54.231033,142.477539 
	C55.744839,147.644684 56.653877,152.988998 57.899239,158.668869 
	C57.990837,159.076111 58.031635,159.031601 58.054050,159.011383 
z"/>
<path fill="#936C4B" opacity="1.000000" stroke="none" 
	d="
M180.729202,164.197815 
	C181.025040,164.526703 181.012466,164.932495 180.993469,165.642746 
	C177.328644,168.996185 173.589752,171.871216 168.358200,172.112137 
	C169.670151,164.582321 172.825409,158.626648 178.563080,154.268509 
	C179.088120,154.489258 179.613144,154.710007 180.138184,154.930756 
	C178.963028,158.192825 177.787872,161.454895 176.296051,165.221710 
	C175.858765,166.058151 175.738129,166.389832 175.617493,166.721512 
	C176.115768,166.524170 176.614029,166.326828 177.112289,166.129486 
	C178.215118,165.511230 179.317963,164.892975 180.729202,164.197815 
z"/>
<path fill="#936C4A" opacity="1.000000" stroke="none" 
	d="
M68.248291,168.181488 
	C68.010361,167.512756 68.002502,167.100174 67.986954,166.378204 
	C68.345024,165.254822 69.166061,164.328049 68.997200,163.646530 
	C68.289444,160.790054 67.285118,158.007065 66.389420,155.197159 
	C67.129143,154.827393 67.868866,154.457611 68.608589,154.087845 
	C71.156448,158.082184 73.755112,162.045349 76.233665,166.082245 
	C77.792320,168.620895 79.170883,171.270096 81.106033,174.717255 
	C76.843781,172.597672 72.661064,170.517654 68.248291,168.181488 
z"/>
<path fill="#F5F6FB" opacity="1.000000" stroke="none" 
	d="
M208.727493,133.788589 
	C208.687119,134.176483 208.340927,134.377365 207.897537,134.268707 
	C208.007446,133.839951 208.214569,133.720779 208.727493,133.788589 
z"/>
<path fill="#F5F6FB" opacity="1.000000" stroke="none" 
	d="
M40.245728,57.405125 
	C40.034348,57.459805 39.610798,57.210972 39.360260,56.758804 
	C39.700031,56.737518 39.866791,56.919563 40.245728,57.405125 
z"/>
<path fill="#F5F6FB" opacity="1.000000" stroke="none" 
	d="
M196.328857,147.582779 
	C196.350235,147.328171 196.538086,147.279709 196.725937,147.231247 
	C196.649078,147.417130 196.572205,147.603027 196.328857,147.582779 
z"/>
<path fill="#F5F6FB" opacity="1.000000" stroke="none" 
	d="
M176.937302,165.932617 
	C176.614029,166.326828 176.115768,166.524170 175.617493,166.721512 
	C175.738129,166.389832 175.858765,166.058151 176.174667,165.555344 
	C176.500732,165.501389 176.631531,165.618576 176.937302,165.932617 
z"/>
</svg>