<svg version="1.1" id="Layer_1" xmlns="http://www.w3.org/2000/svg" xmlns:xlink="http://www.w3.org/1999/xlink" x="0px" y="0px"
	 width="100%" viewBox="0 0 299 68" enable-background="new 0 0 299 68" xml:space="preserve">
<path fill="#F5F5FA" opacity="1.000000" stroke="none" 
	d="
M206.000000,69.000000 
	C137.333344,69.000000 69.166695,69.000000 1.000027,69.000000 
	C1.000018,46.333351 1.000018,23.666698 1.000009,1.000024 
	C50.833309,1.000000 100.666618,1.000000 150.499924,1.000000 
	C200.333252,1.000000 250.166580,1.000000 299.999939,1.000000 
	C299.999939,23.666628 299.999939,46.333256 299.999969,68.999939 
	C268.833344,69.000000 237.666672,69.000000 206.000000,69.000000 
M206.114609,56.744621 
	C209.528824,60.338593 213.771088,60.023479 216.064331,55.256645 
	C215.431076,52.841274 214.797821,50.425907 214.874588,47.898163 
	C221.240112,43.057632 227.568161,44.724754 234.112854,48.809189 
	C234.069565,51.269405 234.026276,53.729626 234.036011,56.993767 
	C234.809036,57.656773 235.570084,58.878593 236.356979,58.895481 
	C243.447205,59.047668 250.546509,59.115833 257.630859,58.863903 
	C258.788605,58.822735 259.886414,57.095844 261.534393,55.766243 
	C255.161896,45.130539 259.100006,33.604774 257.784882,21.144913 
	C269.284302,33.241035 277.744507,46.035046 289.295319,56.170265 
	C290.016510,49.294552 289.864655,42.846992 290.054657,36.409523 
	C290.295807,28.238785 288.256348,19.724155 293.789032,12.369730 
	C290.329742,12.369730 287.317169,12.369730 285.790161,12.369730 
	C286.713013,20.383238 287.611725,28.186932 288.510437,35.990623 
	C287.963837,36.145420 287.417236,36.300217 286.870667,36.455013 
	C280.830048,29.218449 274.830109,21.947140 268.707886,14.780291 
	C267.714386,13.617306 266.234772,12.241065 264.883453,12.129305 
	C260.711975,11.784308 256.493835,12.003393 252.708542,12.003393 
	C257.229492,26.450796 257.010742,40.186310 252.582779,54.119267 
	C250.369598,51.903011 248.815918,49.599968 247.790558,47.081799 
	C243.592987,36.773113 239.403305,26.455341 235.552170,16.014961 
	C234.361816,12.787954 232.786743,11.789492 229.427933,11.866676 
	C226.305756,11.938423 224.832642,12.831356 223.707108,15.857547 
	C219.944046,25.975115 215.786301,35.945877 211.074005,45.970837 
	C210.603088,45.959366 210.132172,45.947895 209.785706,45.338989 
	C209.830170,44.342239 209.874634,43.345490 209.960648,41.416969 
	C204.942169,47.490208 199.376602,49.073082 192.935806,46.905079 
	C186.930542,44.883675 183.326736,40.352558 182.222672,34.324497 
	C181.555130,30.679731 182.176010,26.798983 182.858780,22.880306 
	C190.193665,13.657401 195.925751,14.336200 203.496979,22.950874 
	C204.516373,24.110785 205.881012,24.967283 207.702698,26.307301 
	C207.857452,26.368942 208.009125,26.466963 208.167969,26.480387 
	C208.288712,26.490593 208.525940,26.398920 208.528885,26.342955 
	C208.658875,23.878187 208.513977,21.367907 208.935074,18.956148 
	C209.742630,14.331214 207.199432,12.965899 203.336945,12.022110 
	C185.412903,7.642431 169.219131,17.710688 169.705811,37.958263 
	C169.536728,37.964245 169.367630,37.970226 168.907013,37.336376 
	C165.776611,34.622211 162.939957,31.410851 159.430832,29.337740 
	C156.112915,27.377581 151.833038,27.065399 148.465622,25.162437 
	C146.244629,23.907337 144.889374,21.120239 143.845200,18.904335 
	C150.494583,14.876501 156.087265,16.158283 160.846603,22.597960 
	C162.045959,24.220772 163.734238,25.482235 165.848328,26.387346 
	C167.045624,12.651113 165.285828,10.758610 151.475800,11.056889 
	C149.991913,11.088940 148.482010,11.252776 147.038116,11.587905 
	C135.864517,14.181325 131.789444,22.326019 135.762451,33.206169 
	C136.672714,38.524559 141.020416,40.174545 145.197571,41.895214 
	C150.369278,44.025547 155.611130,45.985558 160.944351,48.765118 
	C160.519241,53.330112 157.426102,55.536766 153.494293,54.798500 
	C149.653046,54.077232 145.582916,52.390583 142.592285,49.935253 
	C139.577301,47.459908 137.766144,43.518242 135.067368,39.710896 
	C135.067368,44.739723 135.067368,49.294258 135.040497,54.630959 
	C136.088821,55.935581 136.896683,57.998051 138.225189,58.419540 
	C145.793320,60.820690 153.616531,61.110447 161.032120,58.242210 
	C164.347015,56.960056 168.860413,55.366085 167.947113,49.371380 
	C168.252472,48.894821 168.557831,48.418262 169.619202,47.981068 
	C171.131073,49.085735 172.952744,49.936970 174.100204,51.339725 
	C178.638687,56.887844 184.027817,60.931587 191.498749,59.877846 
	C196.426453,59.182819 201.189865,57.323021 206.003311,56.003185 
	C206.003311,56.003185 206.013412,55.976551 206.114609,56.744621 
M26.033495,42.879654 
	C28.334942,45.545261 30.835773,48.066196 32.896576,50.906410 
	C37.265999,56.928371 42.558304,60.831993 50.453236,59.928028 
	C54.051868,59.515984 57.670174,59.104034 61.285412,59.043842 
	C69.249771,58.911236 77.217842,59.002426 85.184402,59.001640 
	C87.612488,59.001400 90.075569,59.044868 89.731049,54.705761 
	C89.871651,51.595722 90.012245,48.485687 90.152847,45.375648 
	C84.740501,52.496269 78.263084,54.948380 69.949005,53.650013 
	C69.949005,48.589195 69.949005,43.792339 70.668167,38.926399 
	C72.701042,39.112396 74.804390,39.037090 76.746155,39.560860 
	C78.541969,40.045261 80.164734,41.171215 82.478401,42.312359 
	C82.725479,36.902100 82.972557,31.491842 83.219635,26.081583 
	C78.508469,32.411690 76.233238,33.580582 69.944931,32.321003 
	C69.944931,27.565477 69.944931,22.779848 70.843208,17.996763 
	C76.665871,17.214211 81.484833,18.797060 85.227676,23.588879 
	C86.111694,24.720663 87.924149,25.127254 89.707474,25.290581 
	C89.630569,23.878347 89.553673,22.466116 90.267769,21.083920 
	C92.163269,23.057381 94.058777,25.030842 96.339417,27.527821 
	C96.573898,28.346979 96.808372,29.166140 96.536224,30.419271 
	C98.440109,36.121948 100.218651,41.871128 102.308731,47.504730 
	C103.160812,49.801441 104.688622,51.847458 106.038841,54.703575 
	C106.684837,55.203472 107.330841,55.703369 108.023590,56.974342 
	C110.822968,60.161720 113.505989,59.856194 115.428131,56.015472 
	C115.428131,56.015472 115.860191,55.942120 116.578514,55.868107 
	C117.389076,53.246342 118.199638,50.624577 119.045441,47.249992 
	C122.027473,39.498974 125.009514,31.747952 128.693604,23.916676 
	C132.055908,21.420212 134.267609,18.319889 134.202972,13.226295 
	C134.290176,13.085209 134.411331,12.953399 134.453262,12.799938 
	C134.483902,12.687813 134.416840,12.437008 134.382202,12.434949 
	C131.174072,12.244334 127.964851,12.071762 124.913673,11.906553 
	C129.011566,24.894188 119.858353,34.093227 117.022461,44.985146 
	C114.053833,33.985619 105.389809,24.673765 108.569038,12.064773 
	C102.059982,12.064773 95.608559,12.064773 88.537178,12.032251 
	C88.330254,12.033279 88.123322,12.034307 86.990265,11.996614 
	C76.394760,11.996614 65.799263,11.996614 55.397995,11.996614 
	C57.841198,26.238132 57.387672,39.954876 55.203526,53.903061 
	C46.551399,46.486832 42.158688,36.335606 34.547932,26.126886 
	C39.342892,20.787516 44.066357,15.527758 48.789822,10.267999 
	C49.394970,10.919628 50.000118,11.571257 50.605270,12.222885 
	C46.840900,12.222885 43.076534,12.222885 40.761898,12.222885 
	C39.482433,15.856579 38.980972,19.118513 37.319126,21.604855 
	C34.186520,26.291647 30.385397,30.531607 26.428682,34.755890 
	C26.020979,34.506645 25.613274,34.257397 25.083273,33.080254 
	C25.362143,26.196068 25.641014,19.311882 25.928198,12.222487 
	C21.374580,12.222487 15.965035,12.222487 11.194394,12.222487 
	C11.564996,16.961567 12.312008,21.694521 12.225845,26.412260 
	C12.044676,36.331993 11.426185,46.243740 11.128866,56.917034 
	C13.619625,59.199070 23.394140,60.030075 25.587847,58.049927 
	C25.975143,57.700333 25.886093,56.823017 26.721922,55.794319 
	C26.223007,51.417881 25.724091,47.041447 26.033495,42.879654 
z"/>
<path fill="#906845" opacity="1.000000" stroke="none" 
	d="
M214.164566,48.010540 
	C214.797821,50.425907 215.431076,52.841274 215.580063,55.627090 
	C212.068329,55.990540 209.040878,55.983547 206.013412,55.976555 
	C206.013412,55.976551 206.003311,56.003185 206.053894,55.654305 
	C207.996231,52.194576 209.887970,49.083721 211.779724,45.972870 
	C215.786301,35.945877 219.944046,25.975115 223.707108,15.857547 
	C224.832642,12.831356 226.305756,11.938423 229.427933,11.866676 
	C232.786743,11.789492 234.361816,12.787954 235.552170,16.014961 
	C239.403305,26.455341 243.592987,36.773113 247.790558,47.081799 
	C248.815918,49.599968 250.369598,51.903011 252.582779,54.119267 
	C257.010742,40.186310 257.229492,26.450796 252.708542,12.003393 
	C256.493835,12.003393 260.711975,11.784308 264.883453,12.129305 
	C266.234772,12.241065 267.714386,13.617306 268.707886,14.780291 
	C274.830109,21.947140 280.830048,29.218449 286.870667,36.455013 
	C287.417236,36.300217 287.963837,36.145420 288.510437,35.990623 
	C287.611725,28.186932 286.713013,20.383238 285.790161,12.369730 
	C287.317169,12.369730 290.329742,12.369730 293.789032,12.369730 
	C288.256348,19.724155 290.295807,28.238785 290.054657,36.409523 
	C289.864655,42.846992 290.016510,49.294552 289.295319,56.170265 
	C277.744507,46.035046 269.284302,33.241035 257.784882,21.144913 
	C259.100006,33.604774 255.161896,45.130539 260.806763,55.899883 
	C251.380447,56.085629 242.681717,56.137737 233.983002,56.189842 
	C234.026276,53.729626 234.069565,51.269405 234.025116,48.024261 
	C233.224319,43.238792 231.198868,41.146114 226.803207,41.880280 
	C224.866837,42.203693 222.798401,42.166927 220.847656,41.888844 
	C216.004028,41.198372 214.251663,43.635410 214.164566,48.010540 
M228.548309,32.958645 
	C227.135605,29.525219 225.722916,26.091791 223.796112,21.408894 
	C221.115982,28.342173 218.963882,33.909428 216.742798,39.655201 
	C221.931046,39.655201 226.302246,39.655201 230.592987,39.655201 
	C230.684387,39.145260 230.779846,38.960258 230.732101,38.826298 
	C230.118774,37.105385 229.484985,35.391762 228.548309,32.958645 
z"/>
<path fill="#906946" opacity="1.000000" stroke="none" 
	d="
M26.862164,34.957306 
	C30.385397,30.531607 34.186520,26.291647 37.319126,21.604855 
	C38.980972,19.118513 39.482433,15.856579 40.761898,12.222885 
	C43.076534,12.222885 46.840900,12.222885 50.605270,12.222885 
	C50.000118,11.571257 49.394970,10.919628 48.789822,10.267999 
	C44.066357,15.527758 39.342892,20.787516 34.547932,26.126886 
	C42.158688,36.335606 46.551399,46.486832 55.203526,53.903061 
	C57.387672,39.954876 57.841198,26.238132 55.397995,11.996614 
	C65.799263,11.996614 76.394760,11.996614 87.537781,12.399868 
	C88.549118,15.553376 89.012947,18.303629 89.476776,21.053883 
	C89.553673,22.466116 89.630569,23.878347 89.409500,25.239986 
	C83.464569,15.662672 78.629883,12.973248 69.784996,14.584285 
	C69.837471,15.703110 69.891205,16.848665 69.944931,17.994221 
	C69.944931,22.779848 69.944931,27.565477 69.944931,32.321003 
	C76.233238,33.580582 78.508469,32.411690 83.219635,26.081583 
	C82.972557,31.491842 82.725479,36.902100 82.141441,41.819466 
	C79.107368,39.232742 76.664627,36.575256 73.638824,35.209789 
	C70.831551,33.942932 68.950775,35.531956 69.949005,38.995480 
	C69.949005,43.792339 69.949005,48.589195 69.949005,53.650013 
	C78.263084,54.948380 84.740501,52.496269 90.152847,45.375648 
	C90.012245,48.485687 89.871651,51.595722 89.328583,55.256134 
	C86.437004,55.874287 83.948090,55.990921 81.458740,56.001186 
	C71.981194,56.040283 62.461872,55.490238 53.035984,56.197506 
	C40.100075,57.168144 28.477444,48.172371 26.862164,34.957306 
z"/>
<path fill="#906946" opacity="1.000000" stroke="none" 
	d="
M168.863205,47.941708 
	C168.557831,48.418262 168.252472,48.894821 167.601257,49.824104 
	C163.782257,52.291817 160.531647,55.076469 156.788803,56.158581 
	C149.420090,58.288982 142.125168,56.419601 135.067368,53.848793 
	C135.067368,49.294258 135.067368,44.739723 135.067368,39.710896 
	C137.766144,43.518242 139.577301,47.459908 142.592285,49.935253 
	C145.582916,52.390583 149.653046,54.077232 153.494293,54.798500 
	C157.426102,55.536766 160.519241,53.330112 160.927673,48.035969 
	C159.442184,42.290047 154.727341,41.845200 150.888977,40.070866 
	C145.978882,37.801105 141.181808,35.286831 136.336029,32.877930 
	C131.789444,22.326019 135.864517,14.181325 147.038116,11.587905 
	C148.482010,11.252776 149.991913,11.088940 151.475800,11.056889 
	C165.285828,10.758610 167.045624,12.651113 165.440903,26.301596 
	C161.904419,22.267359 159.391800,17.499691 155.496948,14.568892 
	C150.111221,10.516232 144.241837,13.125697 143.146484,19.019098 
	C144.889374,21.120239 146.244629,23.907337 148.465622,25.162437 
	C151.833038,27.065399 156.112915,27.377581 159.430832,29.337740 
	C162.939957,31.410851 165.776611,34.622211 169.031555,38.039528 
	C169.058456,41.809021 168.960831,44.875366 168.863205,47.941708 
z"/>
<path fill="#916947" opacity="1.000000" stroke="none" 
	d="
M182.217972,23.024265 
	C182.176010,26.798983 181.555130,30.679731 182.222672,34.324497 
	C183.326736,40.352558 186.930542,44.883675 192.935806,46.905079 
	C199.376602,49.073082 204.942169,47.490208 209.960648,41.416969 
	C209.874634,43.345490 209.830170,44.342239 209.489395,45.859421 
	C204.234238,55.012653 196.879318,58.422138 187.681763,56.537605 
	C177.451569,54.441494 172.419174,47.558144 170.213318,37.966328 
	C169.219131,17.710688 185.412903,7.642431 203.336945,12.022110 
	C207.199432,12.965899 209.742630,14.331214 208.935074,18.956148 
	C208.513977,21.367907 208.658875,23.878187 208.528885,26.342955 
	C208.525940,26.398920 208.288712,26.490593 208.167969,26.480387 
	C208.009125,26.466963 207.857452,26.368942 207.367630,25.780323 
	C205.535934,22.876923 204.236877,20.343349 202.499237,18.158609 
	C199.409973,14.274425 195.351929,11.953629 190.280869,13.281056 
	C185.462082,14.542451 183.026535,18.217760 182.217972,23.024265 
z"/>
<path fill="#906846" opacity="1.000000" stroke="none" 
	d="
M127.991554,23.996933 
	C125.009514,31.747952 122.027473,39.498974 118.787308,47.881813 
	C117.639519,50.989799 116.749855,53.465961 115.860191,55.942120 
	C115.860191,55.942120 115.428131,56.015472 114.787651,56.031055 
	C112.090393,56.098850 110.033615,56.151058 107.976837,56.203266 
	C107.330841,55.703369 106.684837,55.203472 106.016251,53.978977 
	C103.010063,45.498020 100.026451,37.741661 97.042847,29.985300 
	C96.808372,29.166140 96.573898,28.346979 96.147827,26.892742 
	C93.689865,21.526701 91.423492,16.795738 89.157127,12.064774 
	C95.608559,12.064773 102.059982,12.064773 108.569038,12.064773 
	C105.389809,24.673765 114.053833,33.985619 117.022461,44.985146 
	C119.858353,34.093227 129.011566,24.894188 124.913673,11.906553 
	C127.964851,12.071762 131.174072,12.244334 134.382202,12.434949 
	C134.416840,12.437008 134.483902,12.687813 134.453262,12.799938 
	C134.411331,12.953399 134.290176,13.085209 133.784012,13.733000 
	C131.573883,17.492115 129.782715,20.744524 127.991554,23.996933 
z"/>
<path fill="#8F6845" opacity="1.000000" stroke="none" 
	d="
M10.987196,56.158768 
	C11.426185,46.243740 12.044676,36.331993 12.225845,26.412260 
	C12.312008,21.694521 11.564996,16.961567 11.194394,12.222487 
	C15.965035,12.222487 21.374580,12.222487 25.928198,12.222487 
	C25.641014,19.311882 25.362143,26.196068 25.067539,33.959354 
	C25.109596,37.447308 25.167387,40.056156 25.225176,42.665009 
	C25.724091,47.041447 26.223007,51.417881 25.906765,55.921410 
	C20.390137,56.085258 15.688666,56.122013 10.987196,56.158768 
z"/>
<path fill="#E9E8EC" opacity="1.000000" stroke="none" 
	d="
M25.629335,42.772331 
	C25.167387,40.056156 25.109596,37.447308 25.128689,34.423302 
	C25.613274,34.257397 26.020979,34.506645 26.645424,34.856598 
	C28.477444,48.172371 40.100075,57.168144 53.035984,56.197506 
	C62.461872,55.490238 71.981194,56.040283 81.458740,56.001186 
	C83.948090,55.990921 86.437004,55.874287 89.356964,55.646629 
	C90.075569,59.044868 87.612488,59.001400 85.184402,59.001640 
	C77.217842,59.002426 69.249771,58.911236 61.285412,59.043842 
	C57.670174,59.104034 54.051868,59.515984 50.453236,59.928028 
	C42.558304,60.831993 37.265999,56.928371 32.896576,50.906410 
	C30.835773,48.066196 28.334942,45.545261 25.629335,42.772331 
z"/>
<path fill="#E9E8EC" opacity="1.000000" stroke="none" 
	d="
M169.959564,37.962296 
	C172.419174,47.558144 177.451569,54.441494 187.681763,56.537605 
	C196.879318,58.422138 204.234238,55.012653 209.427170,46.158138 
	C210.132172,45.947895 210.603088,45.959366 211.426865,45.971855 
	C209.887970,49.083721 207.996231,52.194576 206.065674,55.645088 
	C201.189865,57.323021 196.426453,59.182819 191.498749,59.877846 
	C184.027817,60.931587 178.638687,56.887844 174.100204,51.339725 
	C172.952744,49.936970 171.131073,49.085735 169.241211,47.961388 
	C168.960831,44.875366 169.058456,41.809021 169.177322,38.359444 
	C169.367630,37.970226 169.536728,37.964245 169.959564,37.962296 
z"/>
<path fill="#E9E8EC" opacity="1.000000" stroke="none" 
	d="
M135.053925,54.239876 
	C142.125168,56.419601 149.420090,58.288982 156.788803,56.158581 
	C160.531647,55.076469 163.782257,52.291817 167.541290,50.108074 
	C168.860413,55.366085 164.347015,56.960056 161.032120,58.242210 
	C153.616531,61.110447 145.793320,60.820690 138.225189,58.419540 
	C136.896683,57.998051 136.088821,55.935581 135.053925,54.239876 
z"/>
<path fill="#E8E7EA" opacity="1.000000" stroke="none" 
	d="
M182.538376,22.952286 
	C183.026535,18.217760 185.462082,14.542451 190.280869,13.281056 
	C195.351929,11.953629 199.409973,14.274425 202.499237,18.158609 
	C204.236877,20.343349 205.535934,22.876923 207.059174,25.608810 
	C205.881012,24.967283 204.516373,24.110785 203.496979,22.950874 
	C195.925751,14.336200 190.193665,13.657401 182.538376,22.952286 
z"/>
<path fill="#E9E9EC" opacity="1.000000" stroke="none" 
	d="
M136.049240,33.042049 
	C141.181808,35.286831 145.978882,37.801105 150.888977,40.070866 
	C154.727341,41.845200 159.442184,42.290047 160.866837,47.662987 
	C155.611130,45.985558 150.369278,44.025547 145.197571,41.895214 
	C141.020416,40.174545 136.672714,38.524559 136.049240,33.042049 
z"/>
<path fill="#EAEBF0" opacity="1.000000" stroke="none" 
	d="
M234.009506,56.591805 
	C242.681717,56.137737 251.380447,56.085629 260.545532,56.090801 
	C259.886414,57.095844 258.788605,58.822735 257.630859,58.863903 
	C250.546509,59.115833 243.447205,59.047668 236.356979,58.895481 
	C235.570084,58.878593 234.809036,57.656773 234.009506,56.591805 
z"/>
<path fill="#E8E6E8" opacity="1.000000" stroke="none" 
	d="
M143.495850,18.961716 
	C144.241837,13.125697 150.111221,10.516232 155.496948,14.568892 
	C159.391800,17.499691 161.904419,22.267359 165.115662,26.562801 
	C163.734238,25.482235 162.045959,24.220772 160.846603,22.597960 
	C156.087265,16.158283 150.494583,14.876501 143.495850,18.961716 
z"/>
<path fill="#EBEBEE" opacity="1.000000" stroke="none" 
	d="
M70.394073,17.995491 
	C69.891205,16.848665 69.837471,15.703110 69.784996,14.584285 
	C78.629883,12.973248 83.464569,15.662672 89.210518,25.528419 
	C87.924149,25.127254 86.111694,24.720663 85.227676,23.588879 
	C81.484833,18.797060 76.665871,17.214211 70.394073,17.995491 
z"/>
<path fill="#EDEDF1" opacity="1.000000" stroke="none" 
	d="
M214.519577,47.954353 
	C214.251663,43.635410 216.004028,41.198372 220.847656,41.888844 
	C222.798401,42.166927 224.866837,42.203693 226.803207,41.880280 
	C231.198868,41.146114 233.224319,43.238792 233.912140,47.623478 
	C227.568161,44.724754 221.240112,43.057632 214.519577,47.954353 
z"/>
<path fill="#EAEBF0" opacity="1.000000" stroke="none" 
	d="
M11.058031,56.537903 
	C15.688666,56.122013 20.390137,56.085258 25.554312,56.118950 
	C25.886093,56.823017 25.975143,57.700333 25.587847,58.049927 
	C23.394140,60.030075 13.619625,59.199070 11.058031,56.537903 
z"/>
<path fill="#EBEBEE" opacity="1.000000" stroke="none" 
	d="
M96.789536,30.202286 
	C100.026451,37.741661 103.010063,45.498020 105.951332,53.630959 
	C104.688622,51.847458 103.160812,49.801441 102.308731,47.504730 
	C100.218651,41.871128 98.440109,36.121948 96.789536,30.202286 
z"/>
<path fill="#EBEBEE" opacity="1.000000" stroke="none" 
	d="
M70.308586,38.960938 
	C68.950775,35.531956 70.831551,33.942932 73.638824,35.209789 
	C76.664627,36.575256 79.107368,39.232742 81.834091,41.670597 
	C80.164734,41.171215 78.541969,40.045261 76.746155,39.560860 
	C74.804390,39.037090 72.701042,39.112396 70.308586,38.960938 
z"/>
<path fill="#EBEBEE" opacity="1.000000" stroke="none" 
	d="
M88.847153,12.048512 
	C91.423492,16.795738 93.689865,21.526701 95.955261,26.630985 
	C94.058777,25.030842 92.163269,23.057381 89.872269,21.068901 
	C89.012947,18.303629 88.549118,15.553376 88.000839,12.419230 
	C88.123322,12.034307 88.330254,12.033279 88.847153,12.048512 
z"/>
<path fill="#E9E8EC" opacity="1.000000" stroke="none" 
	d="
M206.064011,56.360588 
	C209.040878,55.983547 212.068329,55.990540 215.549805,56.003796 
	C213.771088,60.023479 209.528824,60.338593 206.064011,56.360588 
z"/>
<path fill="#EBEBEE" opacity="1.000000" stroke="none" 
	d="
M128.342575,23.956804 
	C129.782715,20.744524 131.573883,17.492115 133.659363,14.066885 
	C134.267609,18.319889 132.055908,21.420212 128.342575,23.956804 
z"/>
<path fill="#E9E9EC" opacity="1.000000" stroke="none" 
	d="
M108.000214,56.588806 
	C110.033615,56.151058 112.090393,56.098850 114.584061,56.112083 
	C113.505989,59.856194 110.822968,60.161720 108.000214,56.588806 
z"/>
<path fill="#EBEBEE" opacity="1.000000" stroke="none" 
	d="
M116.219353,55.905113 
	C116.749855,53.465961 117.639519,50.989799 118.769691,48.258224 
	C118.199638,50.624577 117.389076,53.246342 116.219353,55.905113 
z"/>
<path fill="#EEEDF1" opacity="1.000000" stroke="none" 
	d="
M228.702347,33.317467 
	C229.484985,35.391762 230.118774,37.105385 230.732101,38.826298 
	C230.779846,38.960258 230.684387,39.145260 230.592987,39.655201 
	C226.302246,39.655201 221.931046,39.655201 216.742798,39.655201 
	C218.963882,33.909428 221.115982,28.342173 223.796112,21.408894 
	C225.722916,26.091791 227.135605,29.525219 228.702347,33.317467 
z"/>
</svg>