<svg version="1.1" id="Layer_1" xmlns="http://www.w3.org/2000/svg" xmlns:xlink="http://www.w3.org/1999/xlink" x="0px" y="0px"
	 width="100%" viewBox="0 0 496 496" enable-background="new 0 0 496 496" xml:space="preserve">
<path fill="#000000" opacity="1.000000" stroke="none" 
	d="
M310.531464,155.918060 
	C314.433105,157.108582 317.265564,159.344284 318.900146,162.464874 
	C322.575531,169.481506 328.316925,174.917892 332.874420,181.808517 
	C333.096130,174.233856 331.380402,166.881134 334.585968,158.751099 
	C340.279541,164.298248 341.138977,170.302170 341.229584,176.591248 
	C341.239075,177.248871 341.152679,177.935089 340.963776,178.563873 
	C339.876221,182.184265 337.325500,186.064514 337.956024,189.339722 
	C338.931641,194.407639 342.069733,199.059250 344.410889,204.148376 
	C345.770569,201.989075 345.600891,199.746826 345.698883,197.545868 
	C345.795593,195.374161 345.791260,192.657074 348.526154,192.457382 
	C351.032684,192.274368 351.911591,194.749695 352.544769,196.886749 
	C354.384247,203.094742 352.965546,208.800354 349.432434,213.950333 
	C347.894409,216.192245 347.513031,218.150070 347.925018,220.860489 
	C348.813782,226.707626 348.423737,232.643509 347.402740,239.846924 
	C351.355621,235.117661 354.156006,230.797409 359.680634,230.354706 
	C360.879181,235.811737 357.629120,243.148270 350.952118,246.261429 
	C345.378082,248.860367 343.231903,253.073166 341.502472,258.112885 
	C340.612183,260.707214 338.629639,262.931915 338.573456,266.230133 
	C341.448639,266.340393 343.330627,264.251617 345.716125,263.906647 
	C347.052124,263.713440 348.432739,263.537811 349.439575,264.692413 
	C350.558197,265.975189 349.717560,267.258881 349.130493,268.392639 
	C346.220062,274.013489 341.508240,277.387085 335.260040,277.592163 
	C331.562012,277.713470 329.587250,279.210785 327.679504,282.032532 
	C325.388580,285.420959 322.609100,288.479034 319.795959,291.985809 
	C323.852997,293.652954 327.894806,291.537231 331.882477,293.819244 
	C329.137238,298.986115 324.288269,301.401489 319.654694,300.970215 
	C311.644073,300.224762 305.335297,303.147949 298.773865,306.789246 
	C294.978210,308.895660 290.668640,310.265320 285.935852,310.158813 
	C286.159607,309.313538 286.200684,308.752594 286.328888,308.731934 
	C294.523529,307.410248 297.364166,301.172974 300.081879,294.445007 
	C301.255981,291.538483 303.481873,288.788635 307.288208,287.931549 
	C309.240692,291.988831 306.375275,295.102539 305.741852,299.153809 
	C311.294037,295.309998 317.134766,292.902069 317.016418,284.920807 
	C316.959442,281.075775 318.514587,277.097076 320.562103,273.588196 
	C321.487823,272.001770 322.442322,270.394623 324.709717,270.444031 
	C327.811249,272.701630 324.769135,275.747803 325.955963,279.174774 
	C329.751923,273.810486 333.241852,268.953308 335.574310,263.345856 
	C336.286774,261.633057 335.279053,260.128967 334.715546,258.571747 
	C332.132874,251.434601 332.188263,244.376907 335.237610,236.971024 
	C340.267639,239.374191 339.733734,244.272491 341.659454,249.178848 
	C342.832001,244.731476 343.859375,241.342728 344.594299,237.891693 
	C345.219238,234.957062 344.354797,232.618652 341.988586,230.367691 
	C336.691040,225.328156 333.710754,217.089127 334.716461,211.305527 
	C339.545471,212.721436 341.055664,217.324478 344.729553,221.299347 
	C344.157440,214.365448 343.014374,208.559158 340.261292,203.113449 
	C339.395416,201.400726 337.499695,201.475555 335.967773,200.911469 
	C329.191223,198.416153 324.116669,194.034943 320.376862,187.307602 
	C325.693237,185.421738 328.894257,189.707001 333.903687,190.264282 
	C329.130646,182.654617 325.572449,175.090530 317.681488,171.226822 
	C311.406372,168.154297 306.498901,164.133438 305.374756,156.832123 
	C306.833557,155.113266 308.556580,155.821960 310.531464,155.918060 
z"/>
<path fill="#000000" opacity="1.000000" stroke="none" 
	d="
M175.545822,173.567825 
	C178.674744,170.257843 180.805893,166.706787 182.915131,163.095093 
	C186.348663,157.215714 190.507355,155.239883 196.958633,156.340225 
	C195.883926,163.134171 192.116501,167.832596 186.012039,170.450119 
	C177.167313,174.242661 173.602539,182.359985 168.076965,190.545319 
	C173.199417,189.270172 176.502380,186.240402 180.533569,186.375824 
	C181.862015,188.102982 181.067673,189.263031 180.232056,190.290848 
	C176.397903,195.006866 172.102570,199.258163 166.043137,200.844925 
	C163.057480,201.626770 161.607346,203.259033 160.689819,206.023224 
	C159.064285,210.920532 157.765366,215.858948 157.250732,221.626801 
	C160.969986,218.129761 162.199036,212.826660 168.132507,211.247421 
	C168.152954,217.992493 166.362579,224.048904 162.112106,227.948227 
	C154.523300,234.910049 158.479446,241.465546 160.896866,249.388596 
	C162.299667,244.499176 161.982895,239.858566 166.670898,236.795685 
	C169.717087,243.214355 170.741074,249.734024 168.110184,255.690689 
	C165.409210,261.806061 167.441071,266.210358 170.573944,270.880066 
	C172.302887,273.457123 174.077805,276.003326 175.993179,278.798706 
	C177.582977,275.876556 175.104752,273.039612 177.149323,270.640350 
	C179.928101,270.150848 181.059235,272.218933 181.878098,274.121063 
	C183.120346,277.006775 184.925400,280.135101 184.749420,283.055389 
	C184.224716,291.761444 190.337784,295.152710 196.642365,299.382965 
	C195.929062,295.477875 193.432587,292.264496 194.517044,288.291260 
	C198.587250,288.090485 199.767944,291.428528 201.641434,293.692871 
	C204.138794,296.711212 204.283554,300.929993 206.283142,304.047668 
	C208.327530,307.235229 213.179276,306.637817 216.629089,309.174500 
	C214.234741,310.924194 212.374939,309.744110 210.634903,309.326904 
	C208.378571,308.785889 206.048615,308.212860 204.013702,307.149628 
	C197.341797,303.663574 191.161362,299.755585 182.769821,300.841675 
	C178.421753,301.404388 173.389755,299.132904 170.786392,293.946320 
	C174.759491,291.589722 178.803436,293.195892 182.909119,292.687256 
	C179.462479,288.171051 176.057526,283.746063 172.695526,279.288696 
	C171.018723,277.065582 168.627655,277.387085 166.310867,277.333252 
	C159.915421,277.184601 155.888168,273.498657 153.005295,268.243713 
	C152.393188,267.127960 151.742752,265.753143 152.914780,264.535706 
	C153.976532,263.432831 155.418518,263.461853 156.649445,263.956879 
	C159.412781,265.068146 162.087830,266.398987 165.016281,267.740051 
	C162.684113,262.157562 160.337448,256.745087 158.171967,251.261063 
	C157.242981,248.908463 155.133133,248.337280 153.251007,247.357437 
	C146.035767,243.601120 141.542160,236.757462 142.329681,230.224228 
	C148.080887,230.260178 150.780060,234.622726 154.403168,238.345886 
	C153.221283,231.291824 154.890839,224.255829 154.232925,217.441757 
	C153.809937,213.060867 149.535568,209.256500 148.996048,204.244781 
	C148.623734,200.786270 149.072327,197.590836 150.723557,194.613434 
	C151.427582,193.343994 152.503326,191.958221 154.263138,192.392715 
	C155.736938,192.756607 156.080475,194.173431 156.274872,195.541855 
	C156.669891,198.322495 157.081909,201.100708 157.546967,204.292007 
	C159.716217,199.632355 161.605545,195.247238 163.789062,191.013855 
	C164.980682,188.703583 164.134140,186.919037 163.227966,184.905258 
	C159.937576,177.593002 160.536880,170.332581 163.871216,163.218277 
	C164.546677,161.777054 165.274857,159.809845 167.290359,160.084366 
	C169.483017,160.382996 169.011353,162.518356 169.350571,164.085785 
	C170.497208,169.384109 169.000122,174.689468 169.472839,181.190170 
	C171.795502,178.273376 173.558868,176.058945 175.545822,173.567825 
z"/>
<path fill="#000000" opacity="1.000000" stroke="none" 
	d="
M279.277161,190.772186 
	C282.248810,192.284454 282.215210,194.682434 279.637207,194.960022 
	C267.712433,196.243942 262.919403,205.377808 257.535583,213.999771 
	C255.523270,217.222458 253.518860,220.450089 251.463577,223.751373 
	C259.425446,231.697845 265.193909,240.886536 271.930298,249.311783 
	C275.236298,253.446671 278.253510,257.991669 284.114319,258.979340 
	C285.425812,259.200378 286.072266,260.241333 285.865814,261.579773 
	C285.636871,263.064026 284.405182,263.201263 283.216278,263.307129 
	C275.670746,263.978973 268.888947,263.476807 264.043457,256.068146 
	C258.952179,248.283707 252.979813,241.071823 247.313614,233.670090 
	C246.111588,232.099869 244.754883,230.515335 243.140732,229.423203 
	C240.459885,227.609390 238.291840,227.895981 238.260315,231.806686 
	C238.199905,239.298569 238.261200,246.791473 238.191055,254.283203 
	C238.167236,256.826355 239.311264,257.913116 241.792404,257.910980 
	C243.658676,257.909363 245.099472,258.604645 245.062454,260.785553 
	C245.022812,263.122040 243.300812,263.322815 241.557724,263.329987 
	C235.897095,263.353271 230.235901,263.373810 224.575882,263.310822 
	C223.156845,263.295044 221.354660,263.554169 221.059219,261.441315 
	C220.824234,259.760803 222.040482,259.131012 223.408997,258.736481 
	C226.950027,257.715668 227.733902,255.064651 227.727768,251.772781 
	C227.696121,234.790009 227.685013,217.806885 227.776779,200.824478 
	C227.792801,197.859314 227.179947,195.966599 223.723145,196.085403 
	C221.995636,196.144791 220.897507,195.159760 220.915894,193.307938 
	C220.938934,190.986603 222.600769,190.715912 224.367905,190.710144 
	C230.194992,190.691101 236.022308,190.683899 241.849258,190.719711 
	C243.177567,190.727875 244.659622,190.769623 244.923416,192.541382 
	C245.170258,194.199173 244.083542,194.908813 242.672119,195.310745 
	C239.174026,196.306931 238.209686,198.875458 238.248291,202.208008 
	C238.311935,207.701462 238.202316,213.196854 238.259384,218.690460 
	C238.279175,220.595627 237.770966,222.927536 240.586533,223.493607 
	C242.963303,223.971466 244.823257,223.126038 246.137451,221.074478 
	C248.651443,217.150009 251.159470,213.221542 253.700592,209.314651 
	C256.329010,205.273544 258.993805,201.256104 261.797302,196.993149 
	C260.618622,195.579971 257.709686,194.859024 258.989288,192.136703 
	C260.013733,189.957199 262.171448,190.747009 263.870117,190.714157 
	C268.862579,190.617554 273.858582,190.705673 279.277161,190.772186 
z"/>
<path fill="#000000" opacity="1.000000" stroke="none" 
	d="
M354.106567,327.183899 
	C357.946014,329.103821 359.095032,333.406281 362.598938,335.013733 
	C363.737610,334.447479 363.708466,333.515381 363.619141,332.746307 
	C363.096863,328.250275 364.852875,326.539734 369.532318,326.592682 
	C374.210358,326.645660 375.151794,328.931702 375.095764,332.831665 
	C374.990479,340.154816 375.009735,347.480438 375.047760,354.804657 
	C375.065552,358.233826 374.343414,360.650757 370.059204,360.395233 
	C366.630432,360.190674 363.280975,360.758698 363.552795,355.448059 
	C363.747223,351.648682 360.769012,349.441162 357.194458,346.400909 
	C357.194458,350.342468 357.159332,353.272278 357.202820,356.200928 
	C357.265503,360.422424 354.399597,360.358246 351.399841,360.356323 
	C348.374268,360.354370 345.657623,360.350464 345.709106,356.105255 
	C345.809998,347.783203 345.659943,339.458191 345.747833,331.135834 
	C345.813446,324.923553 350.328827,326.964905 354.106567,327.183899 
z"/>
<path fill="#000000" opacity="1.000000" stroke="none" 
	d="
M137.714844,335.081329 
	C137.741669,330.677399 136.691849,326.374634 143.283783,326.590149 
	C147.729950,326.735504 149.838898,327.974640 149.368774,332.649902 
	C149.214066,334.188354 148.844574,335.913971 150.239929,337.921387 
	C151.581009,335.108246 152.795059,332.644318 153.933838,330.146118 
	C154.814804,328.213531 155.951569,326.749786 158.341339,326.748108 
	C164.666260,326.743622 168.047195,325.987518 163.856567,333.923615 
	C162.518082,336.458405 162.013046,338.550812 164.889023,340.794708 
	C167.333679,342.702087 168.317337,355.780304 166.575424,358.526306 
	C164.523239,361.761505 161.167435,360.071625 158.371811,360.172272 
	C155.837250,360.263580 155.705399,358.182648 155.677292,356.271149 
	C155.652863,354.609833 155.666458,352.947327 155.607361,351.287323 
	C155.533310,349.207794 154.315186,348.373566 152.342880,348.405762 
	C150.571854,348.434662 149.524078,349.253418 149.414841,351.078033 
	C149.355301,352.072418 149.346161,353.070038 149.322418,354.066406 
	C149.174728,360.263428 148.924835,360.288818 142.774567,360.403320 
	C138.722031,360.478760 137.581726,358.718506 137.675491,355.008575 
	C137.839172,348.532288 137.717285,342.048767 137.714844,335.081329 
z"/>
<path fill="#000000" opacity="1.000000" stroke="none" 
	d="
M309.913208,340.286316 
	C310.320953,339.106781 310.587189,338.318726 310.875916,337.539001 
	C315.198517,325.864258 315.196259,325.912964 327.711182,326.686554 
	C330.149689,326.837280 331.745117,327.644257 332.725830,329.959625 
	C336.189850,338.137817 338.968262,346.401947 338.233429,355.524170 
	C337.973724,358.748291 337.090729,360.622375 333.543274,360.334045 
	C330.455353,360.083099 326.346954,361.537933 326.644379,355.941284 
	C326.756622,353.829468 325.999939,352.415527 323.553833,352.371887 
	C321.327484,352.332214 320.355835,353.326355 319.855042,355.494385 
	C318.853241,359.831635 314.836487,361.718933 310.688477,360.147888 
	C309.156830,359.567780 308.724518,358.407166 308.755096,357.018402 
	C308.875305,351.560211 307.889130,346.028320 309.913208,340.286316 
M325.081787,340.876556 
	C324.628174,339.751373 324.871124,338.176392 323.154022,337.858887 
	C321.225189,340.549957 320.916595,341.505005 322.015900,342.258850 
	C323.179962,343.057068 324.465210,343.215607 325.081787,340.876556 
z"/>
<path fill="#000000" opacity="1.000000" stroke="none" 
	d="
M211.116699,326.763794 
	C219.257050,326.754028 219.257050,326.754028 219.282166,334.622681 
	C219.311600,343.844635 219.311600,343.844635 222.023178,348.233185 
	C224.100739,346.692108 224.627823,344.468597 224.799118,342.223297 
	C225.026215,339.246307 225.002518,336.247650 225.021851,333.257874 
	C225.060455,327.284729 225.761078,326.785187 231.570953,326.648346 
	C235.607315,326.553284 236.787109,328.464783 236.893219,332.044189 
	C237.159439,341.024261 235.406891,349.517242 231.317230,357.544189 
	C230.379990,359.383728 229.153503,360.187347 227.080719,360.369934 
	C214.440994,361.483307 214.448044,361.319916 209.593704,349.735077 
	C206.810440,343.092804 207.854065,336.333588 207.769424,329.576508 
	C207.746872,327.775604 208.935181,326.939240 211.116699,326.763794 
z"/>
<path fill="#000000" opacity="1.000000" stroke="none" 
	d="
M198.670853,360.028717 
	C192.056900,360.230591 185.889984,360.185577 179.729630,360.365417 
	C176.339081,360.464417 174.824081,359.075836 174.846024,355.695007 
	C174.899063,347.529114 174.862244,339.362579 174.862381,331.196320 
	C174.862427,328.445648 175.966049,326.730255 178.976791,326.735657 
	C184.809708,326.746124 190.643188,326.780853 196.475372,326.713196 
	C200.085693,326.671326 200.305908,328.961334 200.364822,331.712799 
	C200.428665,334.694855 199.676422,336.495270 196.210678,336.377441 
	C193.135361,336.272888 189.994507,336.152924 186.234009,337.288971 
	C189.898132,340.362671 197.274765,335.989044 197.064529,343.738861 
	C196.863297,351.156952 189.666809,346.396881 186.563782,349.505310 
	C188.855576,351.480804 191.265640,350.638885 193.436325,350.675018 
	C200.702682,350.796021 202.067978,352.932465 198.670853,360.028717 
z"/>
<path fill="#000000" opacity="1.000000" stroke="none" 
	d="
M260.348328,336.691528 
	C258.847961,336.806793 257.709686,336.874878 255.775497,336.990540 
	C258.544891,339.375610 261.481781,338.774689 263.942810,339.518585 
	C269.331421,341.147430 270.822296,343.784851 270.265869,351.750641 
	C269.921783,356.676117 267.344940,359.892395 262.763062,360.185425 
	C257.627838,360.513824 252.456711,360.263733 247.301468,360.302032 
	C243.963013,360.326843 243.715317,358.108948 243.681076,355.580414 
	C243.645874,352.980988 244.126083,350.841736 247.312805,350.787750 
	C250.625732,350.731598 253.940323,350.775238 257.254211,350.775238 
	C257.339691,350.373444 257.425201,349.971649 257.510681,349.569855 
	C255.463989,349.139801 253.419083,348.700989 251.370270,348.281250 
	C245.053116,346.987213 243.481598,344.590546 243.696701,336.558167 
	C243.858978,330.497864 246.341431,327.496002 252.173157,326.871429 
	C255.300476,326.536499 258.486115,326.704620 261.645081,326.718384 
	C264.897095,326.732574 268.323303,325.902008 268.470062,331.330597 
	C268.608490,336.451782 265.769714,336.569550 262.193665,336.458466 
	C261.701630,336.443176 261.204956,336.578674 260.348328,336.691528 
z"/>
<path fill="#000000" opacity="1.000000" stroke="none" 
	d="
M288.383789,340.587952 
	C288.357758,341.842346 288.347931,342.675446 288.348694,343.508514 
	C288.355255,350.628632 288.357056,350.744385 295.557190,350.666901 
	C299.495514,350.624542 302.585785,350.959808 302.243042,356.142334 
	C302.051331,359.040527 300.956390,360.418274 297.986816,360.343140 
	C294.490112,360.254639 290.988129,360.386322 287.490509,360.317566 
	C280.920349,360.188416 277.786133,357.706970 277.151611,351.301880 
	C276.661194,346.351532 276.635895,341.299500 276.992889,336.335052 
	C277.431030,330.242859 280.386139,327.440186 286.607300,326.866364 
	C290.408173,326.515717 294.264282,326.776062 298.095306,326.735291 
	C301.515411,326.698883 302.169922,328.848969 302.218018,331.679688 
	C302.268127,334.631500 301.411499,336.561981 298.008087,336.413879 
	C296.347290,336.341644 294.663177,336.330750 293.016571,336.523041 
	C290.796814,336.782257 288.671722,337.350281 288.383789,340.587952 
z"/>
</svg>